<svg width="48" height="48" viewBox="0 0 48 48" fill="none" xmlns="http://www.w3.org/2000/svg">
<path d="M34.2346 40.8375L27.2504 35.5372L24.2613 42.5791L21.7928 40.7165L24.7819 33.6747L17.3765 28.0869L13.9967 36.0493L11.5282 34.1867L14.908 26.2244L7.90426 20.9701L9.05692 18.2546L16.0607 23.5089L19.5968 15.1783L12.593 9.92404L13.7457 7.20855L20.7494 12.4628L23.7385 5.42096L26.207 7.28353L23.2179 14.3254L30.6233 19.9131L34.0031 11.9507L36.4716 13.8133L33.0918 21.7757L40.0955 27.03L38.9233 29.7915L31.9391 24.4912L28.403 32.8217L35.4068 38.076L34.2346 40.8375ZM25.9345 30.9592L29.4707 22.6286L22.0653 17.0409L18.5291 25.3715L25.9345 30.9592Z" fill="black"/>
</svg>
